<?xml version="1.0" standalone="no"?>
<!DOCTYPE svg PUBLIC "-//W3C//DTD SVG 20010904//EN"
 "http://www.w3.org/TR/2001/REC-SVG-20010904/DTD/svg10.dtd">
<svg version="1.0" xmlns="http://www.w3.org/2000/svg"
 width="508.000000pt" height="440.000000pt" viewBox="0 0 508.000000 440.000000"
 preserveAspectRatio="xMidYMid meet">

<g transform="translate(0.000000,440.000000) scale(0.100000,-0.100000)"
fill="#000000" stroke="none">
<path d="M2330 4353 c-30 -2 -107 -10 -170 -19 -585 -77 -1077 -350 -1470
-813 -244 -288 -353 -487 -431 -790 -32 -124 -42 -181 -46 -276 -8 -177 20
-269 112 -358 36 -35 139 -93 185 -103 126 -29 172 -35 245 -30 106 6 175 33
259 101 156 124 90 45 1581 1870 222 272 295 367 295 384 0 6 -10 17 -22 26
-20 13 -57 15 -253 13 -126 -1 -255 -4 -285 -5z"/>
<path d="M3550 4286 c-23 -30 -45 -56 -49 -58 -4 -2 -446 -529 -983 -1173
-645 -775 -999 -1192 -1049 -1236 -102 -91 -182 -148 -275 -196 -171 -88 -321
-120 -523 -110 -209 11 -390 63 -526 152 -38 25 -75 43 -82 41 -18 -7 -19
-1586 -1 -1604 9 -9 183 -12 719 -12 l708 0 108 124 c59 68 137 159 173 202
36 43 81 96 101 119 19 22 53 63 74 90 22 28 96 118 166 200 143 171 871 1045
957 1149 31 38 98 117 147 176 50 59 117 140 150 180 297 362 485 497 800 575
57 15 96 17 225 12 235 -9 410 -57 555 -152 38 -25 75 -43 82 -41 11 4 13 154
11 808 l-3 803 -721 3 -721 2 -43 -54z"/>
<path d="M4280 2463 c-61 -10 -124 -38 -179 -78 -126 -93 -207 -179 -476 -510
-44 -54 -116 -142 -160 -196 -44 -54 -102 -125 -130 -159 -27 -34 -97 -119
-155 -190 -58 -70 -130 -158 -160 -195 -30 -37 -71 -87 -90 -110 -19 -23 -57
-70 -85 -105 -27 -34 -66 -81 -85 -105 -19 -23 -60 -73 -90 -110 -30 -37 -71
-87 -90 -110 -79 -95 -327 -402 -354 -439 -51 -71 -51 -71 290 -74 228 -2 326
1 414 13 403 55 751 195 1064 428 175 131 465 438 594 629 89 132 188 332 212
428 4 19 22 89 40 155 40 153 51 327 27 422 -29 110 -92 187 -199 242 -65 32
-70 34 -178 57 -62 13 -157 16 -210 7z"/>
</g>
</svg>
